/* XPM */
static char *bed1683892824[] = {
/* columns rows colors chars-per-pixel */
"50 50 183 2 ",
"   c None",
".  c #8B5B57",
"X  c #8D5E59",
"o  c #8D5D5A",
"O  c #8D5E5A",
"+  c #8E5E5A",
"@  c #8E5F5A",
"#  c #8F5F5A",
"$  c #8E5F5B",
"%  c #905F5A",
"&  c #8F605B",
"*  c #8E605C",
"=  c #8F605C",
"-  c #8F615C",
";  c #91625A",
":  c #90625D",
">  c #94655C",
",  c #9D6D5A",
"<  c #9D6D5B",
"1  c #9D6E5B",
"2  c #9E6F5B",
"3  c #9E6F5C",
"4  c #A97657",
"5  c #A97757",
"6  c #A77759",
"7  c #A97758",
"8  c #A97858",
"9  c #A97859",
"0  c #AA7858",
"q  c #AA7958",
"w  c #AA7859",
"e  c #AA7959",
"r  c #AB7959",
"t  c #AB7A59",
"y  c #AB7B5A",
"u  c #AC7B5A",
"i  c #AC7C5B",
"p  c #AD7C5B",
"a  c #AD7D5B",
"s  c #AD7E5D",
"d  c #976C68",
"f  c #966D68",
"g  c #976D68",
"h  c #976E6B",
"j  c #986E6A",
"k  c #986F6B",
"l  c #A07262",
"z  c #A07362",
"x  c #A97C63",
"c  c #AA7D63",
"v  c #AA7E64",
"b  c #AB7E64",
"n  c #AB7F64",
"m  c #AA7E65",
"M  c #9C877A",
"N  c #AF8261",
"B  c #AB816A",
"V  c #B18464",
"C  c #B68861",
"Z  c #B78961",
"A  c #B78962",
"S  c #B68863",
"D  c #B78A62",
"F  c #B78A63",
"G  c #B78F68",
"H  c #B7916E",
"J  c #BF9368",
"K  c #BF956B",
"L  c #A8857B",
"P  c #A8867A",
"I  c #B09B7D",
"U  c #B9A37C",
"Y  c #C29569",
"T  c #C29669",
"R  c #C1966A",
"E  c #C1976A",
"W  c #C2976A",
"Q  c #C2986A",
"!  c #C3986B",
"~  c #C59869",
"^  c #C69969",
"/  c #C79A69",
"(  c #C5996A",
")  c #C5996B",
"_  c #C59A6B",
"`  c #C69A6B",
"'  c #C79B6B",
"]  c #C59B6C",
"[  c #C59C6D",
"{  c #C69C6D",
"}  c #C79D6D",
"|  c #C3A174",
" . c #C1A47E",
".. c #8D9190",
"X. c #8E9190",
"o. c #B08E80",
"O. c #B49B96",
"+. c #B59D9B",
"@. c #B59E9B",
"#. c #B59D9C",
"$. c #B49E9C",
"%. c #B59E9C",
"&. c #B49F9C",
"*. c #B59E9D",
"=. c #B59F9D",
"-. c #BAB78F",
";. c #A8AC96",
":. c #A8AD97",
">. c #A9AD97",
",. c #ACAE96",
"<. c #A8AF99",
"1. c #B0B797",
"2. c #B1B897",
"3. c #B9BC95",
"4. c #BBBC94",
"5. c #BBBD95",
"6. c #BBBE96",
"7. c #9EBBAD",
"8. c #B8A4A1",
"9. c #C4A982",
"0. c #C4AA83",
"q. c #C5AB83",
"w. c #C8AF87",
"e. c #CDB88D",
"r. c #D0B88A",
"t. c #C8BCBB",
"y. c #BAC199",
"u. c #B6CFAA",
"i. c #AFDFBE",
"p. c #AFDFBF",
"a. c #B3D9B6",
"s. c #B2DCBA",
"d. c #B1E0BE",
"f. c #B1E1BF",
"g. c #B2E0BE",
"h. c #D9D0A3",
"j. c #D5D7AF",
"k. c #D7D9AF",
"l. c #DFDAAC",
"z. c #DFDBAC",
"x. c #DFDBAD",
"c. c #E0DBAD",
"v. c #E1DCAC",
"b. c #E3DEAD",
"n. c #E0DDAE",
"m. c #E1DDAE",
"M. c #E7E4B2",
"N. c #EEEDB7",
"B. c #EFEDB7",
"V. c #E5EAB9",
"C. c #E7ECBA",
"Z. c #EEEDB8",
"A. c #F0EFB9",
"S. c #F1EFB9",
"D. c #F0F0B9",
"F. c #8ABFC4",
"G. c #8DC1C2",
"H. c #8BC1C5",
"J. c #8BC1C6",
"K. c #8AC2C7",
"L. c #8CC0C4",
"P. c #94C2C1",
"I. c #97C4C0",
"U. c #93CAC3",
"Y. c #94CAC3",
"T. c #96CBC2",
"R. c #98D1C3",
"E. c #9AD4C3",
"W. c #9BD4C3",
"Q. c #9BD5C3",
"!. c #9DD5C2",
"~. c #9ED6C2",
"^. c #9AD5C5",
"/. c #9DD6C4",
"(. c #A3D5C2",
"). c #A4D7C2",
"_. c #A4D8C1",
"`. c #A6DAC0",
"'. c #A6DAC1",
"]. c #AEE0C0",
"[. c #B1E1C0",
"{. c #B0E2C0",
"}. c #B0E3C1",
/* pixels */
"                                                                                                    ",
"                                                                                                    ",
"                      t.%.o.x m m B O.%.@.@.%.%.%.@.%.@.%.%.%.o.m m m m o.@.                        ",
"                      #.. x } } } K > X * X * X X * X * % X X m } [ } } x . @.                      ",
"                  8.%.I m V S S C S m m m m m m m m m m m m m V C S F C V x o.$.8.                  ",
"                  g X m } S t 7 4 s Q ] _ } ] ] ] ] ] _ ] ] } F 7 7 t t C } m O k                   ",
"                  k - x ! C 7 t t t J R R R R R R R R R R R R C 7 t t t C ! x - k                   ",
"                  k - < s y t t t t s a a a a a a a a a a a s u t 6 t t y s 3 - k                   ",
"                  k - < t t 7 6 t 7 7 t t t t 7 t t t 6 t t t 6 7 t t t 7 t < - k                   ",
"                  k - < 7 t t t t t t t 7 7 t 7 7 t t t t 7 t t t t 7 t 6 t < - k                   ",
"                  k - < 7 t t t 6 7 4 4 7 7 7 7 7 4 4 8 4 4 4 4 4 4 t t t t < - k                   ",
"                  k - < t t 7 a  .9.9.9.0.0.9.9.9.9.9.9.9.9.9.9.0. .s 8 t 7 < - k                   ",
"                  k - < t t 4 N h.c.l.l.z.l.l.l.z.z.z.z.z.z.z.z.v.h.N 4 8 t < - k                   ",
"                  k - 2 8 H 0.w.n.M.M.M.M.M.M.M.M.M.M.M.M.M.M.M.M.n.w.0.H t < - k                   ",
"                  k - < 8 0.n.n.N.A.A.A.A.A.A.A.A.A.A.A.A.A.Z.Z.S.N.n.n.0.4 < - k                   ",
"                  k - 3 t q.z.n.N.A.A.A.A.A.A.A.A.A.A.A.A.A.A.D.S.N.n.l.0.a 3 - k                   ",
"                  k : x R r.c.c.N.A.A.A.D.A.A.A.A.A.D.A.A.A.A.A.A.N.c.c.r.Y x : k                   ",
"                  k X m _ e.j.k.V.C.C.C.C.V.C.C.C.C.C.V.C.C.C.C.V.V.k.j.e._ m * k                   ",
"                  k * m _ ,.P.I.).).).).).).).).).).).).).).).).).(.I.P.,._ x * k                   ",
"                  k % b / ;.G.G.R.W.W.W.W.W.W.W.!.W.W.W.^.W.W.W.W.W.G.K.>./ b * k                   ",
"                  k : M <.7.Y.Y.).p.'.'.'.'.'.'.'.'.'.'.'.'.'.'.'._.T.U.7.>.M : k                   ",
"                  k % ..L.Y.^.!.i.i.f.[.f.f.f.f.f.f.f.f.s.[.f.f.s.f./.^.U.L...% k                   ",
"                  k % ..L.Y.W.!.i.[.f.s.s.f.f.f.s.f.f.s.s.f.f.s.[.].!.W.Y.F.X.% k                   ",
"                  k % ..F.Y.W.!.`.s.f.f.f.f.s.f.f.f.f.f.f.f.f.f.s.i.!.!.Y.L.X.% k                   ",
"                  k % X.L.Y.W.!.i.d.d.d.d.d.d.d.f.i.f.s.f.f.s.f.f.i.!.W.Y.F.X.% k                   ",
"                  k % X.L.Y.W.!.i.d.d.d.d.d.d.d.s.f.i.f.f.f.f.f.[.].!.^.Y.L.X.% k                   ",
"                  k % X.L.Y.!.!.i.f.d.d.d.d.d.d.f.f.s.f.f.f.f.i.f.s.W.W.Y.L.X.% k                   ",
"                  k % X.L.Y.W.!.].s.d.d.d.d.d.d.f.f.f.f.f.f.s.f.f.[.~.W.Y.L.X.% k                   ",
"                  k % X.F.Y.W.!.f.i.f.s.d.d.d.d.d.d.d.d.s.f.f.i.f.s.W.W.Y.L.X.% k                   ",
"                  k % X.L.U.W.!.i.f.f.[.d.d.d.d.d.d.d.d.f.f.d.d.[.].W.W.Y.L.X.% k                   ",
"                  k % X.L.Y.W.!.i.f.f.f.d.d.d.d.d.d.d.d.d.d.d.d.s.].W.W.Y.L.X.% k                   ",
"                  k % X.L.Y.Q.Q.i.f.f.s.d.d.d.d.d.d.d.d.d.d.d.d.f.].(.W.Y.L.X.% k                   ",
"                  k % X.L.Y.!.!.].f.f.f.f.f.f.f.f.s.f.f.f.f.f.f.f.i.Q.W.Y.G.X.% k                   ",
"                  k % X.L.Y.W.!.].s.s.[.[.s.f.s.i.f.f.f.f.s.s.f.f.i.!.W.Y.F.X.% k                   ",
"                  k % X.L.Y.W.!.i.f.f.[.f.s.f.f.f.i.s.f.f.f.f.f.g.`.!.W.Y.G...% k                   ",
"                  k % X.L.Y.^.W.].f.f.s.f.f.f.f.s.f.f.f.f.f.s.[.[.].!.^.Y.F...% k                   ",
"                  k % X.L.7.1.2.4.y.s.f.f.[.[.s.f.f.s.].[.f.[.u.5.5.1.1.7.L...% k                   ",
"                  k % X.K.<._ ] _ | a.].[.[.[.[.f.f.[.[.[.[.[.5._ ' _ _ >.K...% k                   ",
"                  k : M <.I C A A G -.5.5.5.4.5.5.5.5.4.5.5.5.U A A A C I <.M : k                   ",
"                  k X b ' A t 7 7 u R ! _ _ _ ] _ _ _ _ _ _ ] C 4 u t 4 A ' b * k                   ",
"                  k - x Q C 7 t 7 i J R R R K R R R R R R R E C 6 t t 7 C Q x : k                   ",
"                  k - 3 s u t t t t i s a a i i a a a s a s s t t t 7 t a a 2 * k                   ",
"                  k - < 7 t 7 t t 6 t 7 t t t t t 7 t 6 t 7 t 7 7 t 6 t t t < : k                   ",
"                  k - < t t 7 t t 7 t t t 7 7 t t t t 7 t t t 7 7 t t t 7 t < * k                   ",
"                  h - < t t 7 t t u t t t 7 t t 7 t t 6 t 7 t t t t 7 t 7 t < * k                   ",
"                  h - < 6 t t 6 2 < < < < 1 1 3 < < 1 3 3 3 3 < < 3 6 t t t < * k                   ",
"                  g o < t t t 6 : X $ $ $ $ $ $ $ $ X - - X X * X : 6 t t u < X k                   ",
"                    $.L < < < l                                     l < < < P                       ",
"                      =.* - * k                                     h - : X %.                      ",
"                      =.* : : k                                     k - : X %.                      "
};
