/* XPM */
static char *front1683892824[] = {
/* columns rows colors chars-per-pixel */
"50 50 159 2 ",
"   c None",
".  c #4E422F",
"X  c #55462D",
"o  c #57482E",
"O  c #5B4A2D",
"+  c #5A4728",
"@  c #4F4230",
"#  c #514432",
"$  c #554937",
"%  c #5B4B30",
"&  c #554938",
"*  c #5B4F3F",
"=  c #5B5339",
"-  c #65512C",
";  c #6B552B",
":  c #66553D",
">  c #5B4F40",
",  c #5D5242",
"<  c #5C5C52",
"1  c #615544",
"2  c #645847",
"3  c #6C5D42",
"4  c #6A5F51",
"5  c #6C6255",
"6  c #716757",
"7  c #825C18",
"8  c #8D6217",
"9  c #8A6219",
"0  c #9B6D19",
"q  c #996A14",
"w  c #99741F",
"e  c #A67218",
"r  c #AA7518",
"t  c #A67C1E",
"y  c #AB7515",
"u  c #B47C16",
"i  c #B97E15",
"p  c #B37C18",
"a  c #8F6F23",
"s  c #906F23",
"d  c #907023",
"f  c #9A7621",
"g  c #9E7922",
"h  c #9F7C36",
"j  c #A17D2A",
"k  c #A9801F",
"l  c #B7851D",
"z  c #AD8323",
"x  c #A5812E",
"c  c #B28524",
"v  c #B68922",
"b  c #BA8A22",
"n  c #A78331",
"m  c #AB8334",
"M  c #AE8935",
"N  c #A18238",
"B  c #BF8D35",
"V  c #C78716",
"C  c #CA8A16",
"Z  c #CE8F18",
"A  c #DBA11E",
"S  c #CA8F2A",
"D  c #C28C2E",
"F  c #C39121",
"G  c #CA9621",
"H  c #CC9922",
"J  c #C69628",
"K  c #CD932E",
"L  c #D29E24",
"P  c #D0962E",
"I  c #CC9634",
"U  c #C19739",
"Y  c #C99338",
"T  c #C59937",
"R  c #D39930",
"E  c #D09630",
"W  c #D5A025",
"Q  c #DCA421",
"!  c #D1A733",
"~  c #DDA336",
"^  c #D2AA36",
"/  c #D2A439",
"(  c #D2AC39",
")  c #E0A622",
"_  c #E2A923",
"`  c #E2A636",
"'  c #E4A739",
"]  c #E3AD39",
"[  c #E5B136",
"{  c #E5B139",
"}  c #AE914B",
"|  c #A88A44",
" . c #CF944C",
".. c #D0964C",
"X. c #D7B44C",
"o. c #D5AC50",
"O. c #E9BB4F",
"+. c #E8BB51",
"@. c #3E88A7",
"#. c #3C96BD",
"$. c #4F8A96",
"%. c #4E97AA",
"&. c #4F98AC",
"*. c #4D98B9",
"=. c #609CAA",
"-. c #72C6D4",
";. c #4FC6FA",
":. c #60C3E1",
">. c #63C9E9",
",. c #95959E",
"<. c #9B9BA2",
"1. c #A49FA3",
"2. c #B9B6BE",
"3. c #B7B4BB",
"4. c #BAB2AB",
"5. c #C2BCBC",
"6. c #BFBDC7",
"7. c #DE91C1",
"8. c #E796C3",
"9. c #E998C3",
"0. c #EA96D7",
"q. c #E794D8",
"w. c #E894D9",
"e. c #E492D6",
"r. c #EB94EB",
"t. c #C5C3CD",
"y. c #CAC6C9",
"u. c #D4CDC7",
"i. c #DED3C4",
"p. c #CFCEDB",
"a. c #CCCAD3",
"s. c #D4CFD2",
"d. c #DDDAD6",
"f. c #D6D4D9",
"g. c #D8D6DB",
"h. c #DAD8DD",
"j. c #E7DFD2",
"k. c #E6E0D3",
"l. c #EDE5D3",
"z. c #E1E0DF",
"x. c #EAE2DC",
"c. c #F7EED4",
"v. c #F9EED2",
"b. c #F0E5D0",
"n. c #DAD9E5",
"m. c #E0DFE7",
"M. c #DAE2E5",
"N. c #E6E5EE",
"B. c #EDECEA",
"V. c #EBEDE2",
"C. c #F6F1E6",
"Z. c #FBF4E7",
"A. c #F5F2E9",
"S. c #FCF7EB",
"D. c #FDF8ED",
"F. c #EBEAF2",
"G. c #F2F2F4",
"H. c #F7F7FA",
"J. c #FEFEFE",
/* pixels */
"                                @ #                             @ @                                 ",
"                                % O                             % %                                 ",
"                            @ O c c O #                     @ O c c % @                             ",
"                            o - F b - %                     o - F b - o                             ",
"                        X o s t Q W g a % @             @ o d g W Q g d o #                         ",
"                        . o w j ~ ~ z g o .             . o g z ~ ~ z f o #                         ",
"                        @ o v Y 8.9.~ H O @             . O H ~ 9.8.Y v O #                         ",
"                        o - B ..q.w.' W ; o             o - W ' w.w...D - o                         ",
"                    @ o a h 7.w.r.w.` Q j s o . . . . o a g Q ' 0.r.w.7.h a o #                     ",
"                    X o g m e.r.w.8.` Q r f - o O o o - f k Q ` 9.w.r.e.m w o #                     ",
"                    @ o v Y q.w...I _ Q i p b b y r b b p p Q ) I ..q.q.Y b O @                     ",
"                    o - b I 8.8.I H Q Q i u G G i i G G i i Q _ H I 8.9.I b - o                     ",
"                @ o a f F G ` ' _ ) _ ) C C Q Q C C Q Q C C Q _ Q _ ` ` J Z f a o @                 ",
"                . o f t F G Q _ _ _ L L Z Z ) ) Z C ) ) Z Z L W _ _ _ Q G F j f o #                 ",
"                . O e u V Z Q _ _ W ; ; L _ _ ) C C Q _ ) L ; ; W _ _ ) Z V u e + #                 ",
"                @ o y i C Z ) _ W J 3 3 L _ _ _ Z Z ) _ _ W 3 3 J W _ Q Z C i r o #                 ",
"                . O b G Q ) _ L ; 3 j.l.{ _ _ _ Q ) _ _ _ { l.d.: ; W _ _ Q G b O #                 ",
"                X o b G Q ) _ L = < M.V.{ _ _ _ { { _ _ _ { V.M.< $ W _ ) Q F b O #                 ",
"            X . . o r i C Z ) ! $.@.*.=.! _ ) ] v.v.{ _ _ ! =.*.%.$.! ) Z C i r o @ # .             ",
"            # # . o y i C Z ) ! &.#.#.&.! _ [ +.D.D.+.[ _ ! %.#.#.%.! _ Z C i y + @ X .             ",
"                . O b G Q Q _ ^ :.;.;.:.^ [ v.S.J.J.S.v.[ ^ :.;.;.:.( _ ) Q G v o #                 ",
"                . O b F Q Q ) ^ -.>.>.-.X.O.S.J.B.B.J.S.+.X.-.>.>.-.^ A Q A F v o @                 ",
"            . # . + 7 q u i C Z ^ ( ( X.c.S.J.B.6 6 B.J.D.v.X.( ( ^ Z C i i q 8 o . # #             ",
"            . . . O 7 8 y p S I ] { { O.S.J.G.V.5 5 V.G.J.S.O.{ { ] P S p y 8 7 + @ . .             ",
"                    o O w m i.j.C.Z.Z.Z.J.G.<.,.6.6.,.<.G.J.S.Z.Z.Z.x.i.n w O o                     ",
"                    . o w N u.n.H.J.J.J.J.F.<.<.p.p.,.,.G.J.H.J.J.H.n.u.h s % @                     ",
"                        o o , 5 a.n.n.n.F.F.m.n.N.N.n.N.F.B.n.n.n.a.5 * o o                         ",
"                        . . . * 3.t.t.t.f.g.g.g.g.g.g.g.g.f.t.t.t.3., . X @                         ",
"                            X # , , , , , , , 1 , , 1 , , , , , , > @ #                             ",
"                            o O O O 1 , > > , > , , > > , , , , - O o %                             ",
"                        @ o 0 y H / u.g.t.t.t.t.t.t.t.t.t.t.g.u./ L b c % @                         ",
"                        $ O y l A { x.N.n.n.n.n.n.n.n.n.n.n.F.x.] ) H b ; O                         ",
"                    . $     j t G / C.J.J.H.J.J.H.J.H.J.J.J.J.C.P C C C b c O @                     ",
"                    . $     x x b U A.J.J.J.J.J.J.J.J.J.J.J.J.C.K V P I / U % #                     ",
"                    @ #       4.: 3 B.J.J.J.J.J.J.J.J.J.J.J.J.C.M m b.Z.Z.k.1 .                     ",
"                    . $       1.$ 1 B.J.J.J.J.J.J.J.J.J.J.J.J.A.N N C.J.J.B.1 .                     ",
"                        $ $ $ $ . 1 B.J.J.J.J.J.J.J.J.J.J.J.J.B.3 3 B.J.J.B.1 .                     ",
"                        . . . X X 1 k.S.J.J.J.J.J.J.J.J.J.J.S.k., , d.B.B.d.2 @                     ",
"                                @ % T o.Z.J.J.J.J.J.J.J.J.D.o.U % @ 1 1 1 2                         ",
"                                . O b T b.A.H.J.J.J.H.H.A.b.T l o X o X X @                         ",
"                                X o r p m } s.n.n.n.n.s.} n q q + o s d o #                         ",
"                                # o r u t n 5.t.t.t.t.5.| j 8 ; + O d d o #                         ",
"                                @ O H Q C i : , , , * 4 5.5.: X 7 7 O o                             ",
"                                X % / ] R D O X . . . * 2.2.> X 7 7 o @                             ",
"                                . 1 l.Z.Z.j.1 .     . # * , # X o $                                 ",
"                                . 1 V.J.J.B.1 .     X . . . . . X @                                 ",
"                                . 1 n.F.F.g.1 .                                                     ",
"                                . 1 y.g.g.y.1 .                                                     ",
"                                    1 , 1 1                                                         ",
"                                    . . . .                                                         "
};
