/* XPM */
static char *ground1683892825[] = {
/* columns rows colors chars-per-pixel */
"50 50 20 1 ",
"  c #8FDE5D",
". c #8EDD5D",
"X c #B1F067",
"o c #C1F671",
"O c #45AA70",
"+ c #9DC374",
"@ c #FFE778",
"# c #8EDE5D",
"$ c #9FE762",
"% c #ABEC68",
"& c #8AD46F",
"* c #91CA72",
"= c #9EC374",
"- c #94E15F",
"; c #C7FB6C",
": c #8AD56F",
"> c #46AA70",
", c #90DE5D",
"< c #9FE662",
"1 c white",
/* pixels */
"                   .XoO+@@+OoX.                   ",
"                   #$%&*==*&%$#                   ",
"                    .-;:>>:;-.                    ",
"                     ,-%oo%-,                     ",
"                      .<XX<.                      ",
"                       #..#                       ",
"                                                  ",
"                                                  ",
"                                                  ",
"                                                  ",
"                                                  ",
"                                                  ",
"                                                  ",
"                                                  ",
"                                                  ",
"                                                  ",
"                                                  ",
"                                                  ",
"                                                  ",
".#                                              #.",
"X$.                                            .$X",
"o%-,                                          ,-%o",
"O&;-.                                        .-;&O",
"+*:%<#                                      #<%:*+",
"@=>oX.                                      .Xo>=@",
"@=>oX.                                      .Xo>=@",
"+*:%<#                                      #<%:*+",
"O&;-.                                        .-;&O",
"o%-,                                          ,-%o",
"X$.                                            .$X",
".#                                              #.",
"                                                  ",
"                                                  ",
"                                                  ",
"                                                  ",
"                                                  ",
"                                                  ",
"                                                  ",
"                                                  ",
"                                                  ",
"                                                  ",
"                                                  ",
"                                                  ",
"                                                  ",
"                       #..#                       ",
"                      .<XX<.                      ",
"                     ,-%oo%-,                     ",
"                    .-;:>>:;-.                    ",
"                   #$%&*==*&%$#                   ",
"                   .XoO+@@+OoX.                   "
};
