/* XPM */
static char *tree1683892824[] = {
/* columns rows colors chars-per-pixel */
"50 50 114 2 ",
"   c None",
".  c #3E7377",
"X  c #3F757A",
"o  c #5D736E",
"O  c #457577",
"+  c #417F77",
"@  c #417579",
"#  c #447B7A",
"$  c #497B7E",
"%  c #746D62",
"&  c #747265",
"*  c #7B7162",
"=  c #966D52",
"-  c #9B6D52",
";  c #8E7356",
":  c #82715F",
">  c #967556",
",  c #997056",
"<  c #9A7E5B",
"1  c #A9644B",
"2  c #A66D4E",
"3  c #AC694C",
"4  c #B46E4C",
"5  c #B96F4A",
"6  c #BC734E",
"7  c #A07559",
"8  c #B37754",
"9  c #BB7552",
"0  c #B77955",
"q  c #BE7953",
"w  c #837260",
"e  c #C57950",
"r  c #C97D54",
"t  c #4CAF4F",
"y  c #4FB248",
"u  c #56B742",
"i  c #57B842",
"p  c #5BBA45",
"a  c #53B44A",
"s  c #59B74E",
"d  c #5BB84E",
"f  c #4FAF56",
"g  c #4DAB5D",
"h  c #50B053",
"j  c #55B159",
"k  c #59B45C",
"l  c #64BF4C",
"z  c #65BC54",
"x  c #69BE54",
"c  c #5F8E6F",
"v  c #468E75",
"b  c #45827A",
"n  c #4B857E",
"m  c #478A7A",
"M  c #498F7B",
"N  c #459375",
"B  c #499576",
"V  c #499B71",
"C  c #479279",
"Z  c #49907A",
"A  c #608D6F",
"S  c #788A63",
"D  c #4CA663",
"F  c #49A867",
"G  c #49A569",
"H  c #49A868",
"J  c #5EB560",
"K  c #5BB16C",
"L  c #5AAF70",
"P  c #67B476",
"I  c #67B37A",
"U  c #6EB57B",
"Y  c #66C04D",
"T  c #68C14F",
"R  c #6DC453",
"E  c #72C756",
"W  c #74C857",
"Q  c #7BCC57",
"!  c #76C958",
"~  c #7CCC59",
"^  c #75C162",
"/  c #CD8156",
"(  c #D18457",
")  c #D38658",
"_  c #86D25D",
"`  c #94D961",
"'  c #9ADC63",
"]  c #AFE76A",
"[  c #AFE86A",
"{  c #B5EB6D",
"}  c #BDEF6F",
"|  c #BFF070",
" . c #C0F070",
".. c #4F7D82",
"X. c #507F81",
"o. c #4F8183",
"O. c #518283",
"+. c #539382",
"@. c #669390",
"#. c #689391",
"$. c #6A9D91",
"%. c #6AA091",
"&. c #88BE98",
"*. c #85A1A4",
"=. c #8DA7A9",
"-. c #96ADAF",
";. c #91B4AA",
":. c #91C29E",
">. c #9AC4A9",
",. c #B7CDBF",
"<. c #C0D3BC",
"1. c #B5C1C3",
"2. c #B7C8C3",
"3. c #B8C9C4",
/* pixels */
"                                                z z                                                 ",
"                                              ^ ! ! ^ <.                                            ",
"                                        :.J R Q [ [ Q z P                                           ",
"                                    :.L k Y ~ { } } { Q d K I                                       ",
"                                  :.j d W ` { } } } } { ! R s P                                     ",
"                                >.j Y W W ' } } } } } { ~ ! R s I                                   ",
"                                U s R W W ' } } } } } { ~ E E l k :.                                ",
"                              U y Y W W E _ ' } } } } ' ! ! E E p j &.,.                            ",
"                            U y p R W W W W ! ' } } ' W W W W W l p t U ,.                          ",
"                        ;.U a u p R W W W W W ! ` ` ! W W W W E l i i a U ;.3.                      ",
"                      $.N g i u p E W W W W W W W W W W W W W E l i u u g v $.3.                    ",
"                    %.N D a u u Y ! W W W W W W W W W W W W W W W i u u a D N %.2.                  ",
"                  +.B G h u u u p T R ! W W W W W W W W W W W l l i i u u f G N ;.                  ",
"                  +.V H g a u u u p R W W W W W W W W W W W W l i u u i a g H V $.1.                ",
"                o.m V H G f u u i Y ! E W W W W W W E E W W W E i u u u f H H V # =.                ",
"                n V G G g a u u u p R ! R R W W W W E E R E E l i u u u a g H G N #.1.              ",
"              n v H H H y u u u u u p Y p Y ! ! ! E ! E p l l u u u u u i h H F V m @.1.            ",
"            O.M V H H H f u u u u u i i i p T E W ! W l u u u u u i u i a g F F G C X =.            ",
"            O.M G F H H f u u u u u u u u u p R E E R i i u u u u u i u f H H H F V + =.            ",
"            O.N G H H H F F f u i u u u u u u i i i p u u u u u u u i h F F F F F V b *.            ",
"            # m G H H H F H F f u u u u i u u i u u u u u u u u u u u f H F F F F V m $ -.          ",
"          O.m M B G H H F H H j u u u i u u u u i u u u u u u u u u D F H F H H F V Z X =.          ",
"          O.m Z G F D F F F F F h u u u u u u u u u u u u u u g u a F F F F F F V C Z b *.          ",
"          # m M G F F F H F F F F D F f u u u u u u u u i i a D F D F F F H F F V C Z b $ -.        ",
"          # m M C G F F F H F H F F F F f u u a D F g y u a g F F F G F F F F V Z M M b . =.        ",
"          @ m M Z G H F F F F H H H F F F D F D F F F F F F F F H F F F F H F V M M Z b . =.        ",
"          X M M M Z V G G F F F F F H F F F F H F F F F F H F F H F F F F H G V M M M b . =.        ",
"          # m M M Z Z Z V F F F F H F F F F F H F F F H H H H F F F H F F V Z Z M M b @ . =.        ",
"          @ # M M Z M M V H H H H F F H H F F F F F F F H H F F H H H F G V M M M M b @ $           ",
"          X.@ m M M M M Z V G V V H F F G G H F F H F G B H H G C G G G V Z M M Z M b . *.          ",
"          ..# m M M M M M Z Z Z C V F F V G F F H F H G C G G N M Z Z Z Z M M M M b @ .             ",
"            $ b M Z M M M M Z Z Z N V V B B V G H F H V Z V V Z M Z Z M Z M M M M b @               ",
"            O.@ b b m M M M M M Z M M M M Z Z B V V B C m C m Z Z C m C M M M Z m # .               ",
"              # @ @ b M M M M M M M M M M M Z Z Z Z Z Z +.Z Z Z +.m Z m m m Z m # .                 ",
"                O . # m Z M m m M M M M M m Z Z Z Z Z Z m Z m +.+.C +.C b # b # .                   ",
"                  $ . # b b # b Z M M M Z +.m Z +.Z Z m Z Z Z b m C m m # @ @ .                     ",
"                      X @ @ @ # m M Z m b m Z M m m Z Z M b b @ X b b # X @ .                       ",
"                        b @ @ @ # b b # @ # b M Z Z Z b b @ @ @ X X # @ . b N                       ",
"                          Z b X @ @ @ @ @ @ @ b b b b @ @ @ @ @ X X X b C                           ",
"                            A % * o . @ @ @ @ @ X X @ @ @ X X O & & & c                             ",
"                              4 r 7 * * o @ X X X X X @ O & * : q e 1                               ",
"                              < r ( 6 5 - * * * * * * * w 4 5 r ( 0                                 ",
"                                < 9 4 3 4 4 4 5 e e 5 4 4 3 3 9 8 S                                 ",
"                                  = = = 2 4 4 6 ( ( 6 4 4 = = = ;                                   ",
"                                          2 4 / ) ) / 4 >                                           ",
"                                            - / / / / >                                             ",
"                                              > , - >                                               ",
"                                                                                                    ",
"                                                                                                    ",
"                                                                                                    "
};
