/* XPM */
static char *wine1683892825[] = {
/* columns rows colors chars-per-pixel */
"40 40 135 2 ",
"   c None",
".  c #163C3E",
"X  c #193B3E",
"o  c #17453F",
"O  c #1B423F",
"+  c #1D483F",
"@  c #7D3E74",
"#  c #1E4940",
"$  c #115B49",
"%  c #214E40",
"&  c #225441",
"*  c #255B42",
"=  c #285E42",
"-  c #176448",
";  c #266042",
":  c #2B6543",
">  c #2E6A44",
",  c #306E44",
"<  c #247047",
"1  c #227049",
"2  c #2A7949",
"3  c #337545",
"4  c #367A46",
"5  c #397D45",
"6  c #4C7A4B",
"7  c #5A794F",
"8  c #627247",
"9  c #656E52",
"0  c #747751",
"q  c #803F75",
"w  c #937D5D",
"e  c #824175",
"r  c #844A71",
"t  c #884E71",
"y  c #8E437A",
"u  c #914D79",
"i  c #9B487F",
"p  c #91447B",
"a  c #AC537F",
"s  c #9A6071",
"d  c #B86C7A",
"f  c #B57076",
"g  c #C17F75",
"h  c #CD7C7D",
"j  c #3C8547",
"k  c #3C8A47",
"l  c #3C8648",
"z  c #3E8948",
"x  c #40824E",
"c  c #438C4B",
"v  c #449249",
"b  c #499B49",
"n  c #55944B",
"m  c #559F57",
"M  c #649B4D",
"N  c #6E9D4E",
"B  c #658C52",
"V  c #669053",
"C  c #699552",
"Z  c #669458",
"A  c #629A54",
"S  c #4EA34A",
"D  c #53AC4B",
"F  c #59AF4C",
"G  c #56B24B",
"H  c #59B34C",
"J  c #7EBD59",
"K  c #78B762",
"L  c #76C64F",
"P  c #95875E",
"I  c #96885E",
"U  c #98885F",
"Y  c #859A5A",
"T  c #9C915F",
"R  c #94B953",
"E  c #AABE56",
"W  c #9F9961",
"Q  c #9C9B6D",
"!  c #BF8172",
"~  c #83AC62",
"^  c #A9AF6A",
"/  c #D68557",
"(  c #DD8D5B",
")  c #D08D62",
"_  c #DE9564",
"`  c #CC8D72",
"'  c #D8877A",
"]  c #DB9376",
"[  c #DB9B73",
"{  c #D29572",
"}  c #E19965",
"|  c #E39C69",
" . c #E09F74",
".. c #DFA571",
"X. c #E3A16D",
"o. c #E4A572",
"O. c #E8A773",
"+. c #E6A872",
"@. c #E9A873",
"#. c #E4AB7F",
"$. c #E4B27F",
"%. c #89C053",
"&. c #81CB56",
"*. c #90CA53",
"=. c #BFD559",
"-. c #C1D559",
";. c #9E4980",
":. c #A44A82",
">. c #AC4D83",
",. c #AE5383",
"<. c #B65087",
"1. c #BB5782",
"2. c #B95886",
"3. c #B65088",
"4. c #C15786",
"5. c #C35A83",
"6. c #C85984",
"7. c #C56B81",
"8. c #C6688B",
"9. c #C26483",
"0. c #D16082",
"q. c #C67180",
"w. c #C37190",
"e. c #B2888D",
"r. c #A5B682",
"t. c #D49D9C",
"y. c #DCA184",
"u. c #E1AE8B",
"i. c #E6B180",
"p. c #E9B281",
"a. c #E2B887",
"s. c #E7BA89",
"d. c #E8CEA8",
"f. c #E6D2A6",
"g. c #EAD4A9",
/* pixels */
"                                    ) _ X.}                                     ",
"                                    / ( | _                                     ",
"                                    8 0 Y ~                                     ",
"                                    # # - <                                     ",
"                                    * . $ 2                                     ",
"                                    * # 1 S                                     ",
"                                    > # l D                                     ",
"                                    3 ; M R                                     ",
"                                    , = N E                                     ",
"                                    , = N *.                                    ",
"                                    , = N R                                     ",
"                                    , = v F                                     ",
"                                    , = v D                                     ",
"                                    3 , b G m                                   ",
"                            c c l c l S G H G R *.&.                            ",
"                          x 3 4 v l 5 5 j k k c H -.A                           ",
"                          3 * : b j 3 : : k k k F =.n l                         ",
"                          3 * : b l 3 > : k k k D L v j                         ",
"                          3 * : b j 6 B 7 B Z Z K J C Z                         ",
"                          3 * : b j P o.......a.f.i.....                        ",
"                          , % % , > I O.o.o.+.s.g.$.o.o.                        ",
"                          > X X * * I O.o.+.O.s.g.$.o.+.                        ",
"                          > X O * * P +.+...] y.g.y.] o.                        ",
"                          > X O & * P ..! 7.3.w.t.8.9.o.                        ",
"                          > X X * * I [ r :.3.>.5.5.,.h                         ",
"                          > X O * * I +.f ;.:.>.5.4.<.2.                        ",
"                          > X O & * I @.[ t e :.4.6.9.[                         ",
"                          > X X * * I @.[ s y :.0.5.h o.                        ",
"                          > X X * * P +.` @ ;.:.,.5.[ +.                        ",
"                          > X O & * I O.o.f p i 1.' o.o.                        ",
"                          > X O * ; I O.o.g @ @ ,.] +.o.                        ",
"                          > . O 3 , I O.o...d u e.#.o.o.                        ",
"                          > X # 5 3 U @.@.@.o.u.d.s.O.O.                        ",
"                          > X # 5 3 9 w w U I Q ^ ^ T W                         ",
"                          > X O 5 3 # . O * * > z F 3 l                         ",
"                          > X O 4 3 # X O = * , l b 3 l                         ",
"                          > X O = = # X # * * = ; > > l                         ",
"                          , # X & * # X # * * * * * 3 z                         ",
"                          3 & % , 3 > > > 3 3 3 3 3 l z                         ",
"                          , * = > > > > > > > > > > ,                           "
};
